<?xml version="1.0" encoding="UTF-8" standalone="no"?>
<svg  version="1.1"
	xmlns="http://www.w3.org/2000/svg"
	xmlns:xlink="http://www.w3.org/1999/xlink"
	width="575"
	height="500"
	viewBox="-1.5 -5 11.5 10">

<title>Logs to Base e, 2 and 0.5</title>

<defs>
	<path id="g" d="M1.428 -2.172C1.992 -1.8 2.472 -1.8 2.604 -1.8C3.684 -1.8 4.488 -2.616 4.488 -3.54C4.488 -3.864 4.392 -4.32 4.008 -4.704C4.476 -5.184 5.04 -5.184 5.1 -5.184C5.148 -5.184 5.208 -5.184 5.256 -5.16C5.136 -5.112 5.076 -4.992 5.076 -4.86C5.076 -4.692 5.196 -4.548 5.388 -4.548C5.484 -4.548 5.7 -4.608 5.7 -4.872C5.7 -5.088 5.532 -5.424 5.112 -5.424C4.488 -5.424 4.02 -5.04 3.852 -4.86C3.492 -5.136 3.072 -5.292 2.616 -5.292C1.536 -5.292 0.732 -4.476 0.732 -3.552C0.732 -2.868 1.152 -2.424 1.272 -2.316C1.128 -2.136 0.912 -1.788 0.912 -1.32C0.912 -0.624 1.332 -0.324 1.428 -0.264C0.876 -0.108 0.324 0.324 0.324 0.948C0.324 1.776 1.452 2.46 2.928 2.46C4.356 2.46 5.544 1.824 5.544 0.924C5.544 0.624 5.46 -0.084 4.74 -0.456C4.128 -0.768 3.528 -0.768 2.496 -0.768C1.764 -0.768 1.68 -0.768 1.464 -0.996C1.344 -1.116 1.236 -1.344 1.236 -1.596C1.236 -1.8 1.308 -2.004 1.428 -2.172ZM2.616 -2.052C1.56 -2.052 1.56 -3.264 1.56 -3.54C1.56 -3.756 1.56 -4.248 1.764 -4.572C1.992 -4.92 2.352 -5.04 2.604 -5.04C3.66 -5.04 3.66 -3.828 3.66 -3.552C3.66 -3.336 3.66 -2.844 3.456 -2.52C3.228 -2.172 2.868 -2.052 2.616 -2.052ZM2.94 2.208C1.788 2.208 0.912 1.62 0.912 0.936C0.912 0.84 0.936 0.372 1.392 0.06C1.656 -0.108 1.764 -0.108 2.604 -0.108C3.6 -0.108 4.956 -0.108 4.956 0.936C4.956 1.644 4.044 2.208 2.94 2.208Z"/>
	<path id="l" d="M2.064 -8.328L0.396 -8.196V-7.848C1.212 -7.848 1.308 -7.764 1.308 -7.176V-0.888C1.308 -0.348 1.176 -0.348 0.396 -0.348V-0C0.732 -0.024 1.32 -0.024 1.68 -0.024S2.64 -0.024 2.976 -0V-0.348C2.208 -0.348 2.064 -0.348 2.064 -0.888V-8.328Z"/>
	<path id="n" d="M5.34 -2.916C5.34 -4.032 5.34 -4.368 5.064 -4.752C4.716 -5.22 4.152 -5.292 3.744 -5.292C2.58 -5.292 2.124 -4.296 2.028 -4.056H2.016V-5.292L0.384 -5.16V-4.812C1.2 -4.812 1.296 -4.728 1.296 -4.14V-0.888C1.296 -0.348 1.164 -0.348 0.384 -0.348V-0C0.696 -0.024 1.344 -0.024 1.68 -0.024C2.028 -0.024 2.676 -0.024 2.988 -0V-0.348C2.22 -0.348 2.076 -0.348 2.076 -0.888V-3.12C2.076 -4.38 2.904 -5.052 3.648 -5.052S4.56 -4.44 4.56 -3.708V-0.888C4.56 -0.348 4.428 -0.348 3.648 -0.348V-0C3.96 -0.024 4.608 -0.024 4.944 -0.024C5.292 -0.024 5.94 -0.024 6.252 -0V-0.348C5.652 -0.348 5.352 -0.348 5.34 -0.708V-2.916Z"/>
	<path id="o" d="M5.508 -2.568C5.508 -4.116 4.332 -5.352 2.94 -5.352C1.5 -5.352 0.36 -4.08 0.36 -2.568C0.36 -1.032 1.56 0.12 2.928 0.12C4.344 0.12 5.508 -1.056 5.508 -2.568ZM2.94 -0.144C2.496 -0.144 1.956 -0.336 1.608 -0.924C1.284 -1.464 1.272 -2.172 1.272 -2.676C1.272 -3.132 1.272 -3.864 1.644 -4.404C1.98 -4.92 2.508 -5.112 2.928 -5.112C3.396 -5.112 3.9 -4.896 4.224 -4.428C4.596 -3.876 4.596 -3.12 4.596 -2.676C4.596 -2.256 4.596 -1.512 4.284 -0.948C3.948 -0.372 3.396 -0.144 2.94 -0.144Z"/>
	<path id="_2" d="M2.256 -1.632C2.384 -1.752 2.72 -2.016 2.848 -2.128C3.344 -2.584 3.816 -3.024 3.816 -3.752C3.816 -4.704 3.016 -5.32 2.016 -5.32C1.056 -5.32 0.424 -4.592 0.424 -3.88C0.424 -3.488 0.736 -3.432 0.848 -3.432C1.016 -3.432 1.264 -3.552 1.264 -3.856C1.264 -4.272 0.864 -4.272 0.768 -4.272C1 -4.856 1.536 -5.056 1.928 -5.056C2.672 -5.056 3.056 -4.424 3.056 -3.752C3.056 -2.92 2.472 -2.312 1.528 -1.344L0.52 -0.304C0.424 -0.216 0.424 -0.2 0.424 -0H3.584L3.816 -1.432H3.568C3.544 -1.272 3.48 -0.872 3.384 -0.72C3.336 -0.656 2.728 -0.656 2.6 -0.656H1.176L2.256 -1.632Z"/>
	<path id="__1" d="M2.154 -3.81C2.154 -3.99 2.13 -3.99 1.95 -3.99C1.554 -3.606 0.942 -3.606 0.726 -3.606V-3.372C0.882 -3.372 1.278 -3.372 1.638 -3.54V-0.51C1.638 -0.312 1.638 -0.234 1.02 -0.234H0.762V-0C1.092 -0.024 1.56 -0.024 1.896 -0.024S2.7 -0.024 3.03 -0V-0.234H2.772C2.154 -0.234 2.154 -0.312 2.154 -0.51V-3.81Z"/>
	<path id="__2" d="M3.228 -1.122H3.006C2.994 -1.038 2.934 -0.642 2.844 -0.576C2.802 -0.54 2.316 -0.54 2.232 -0.54H1.11C1.284 -0.678 1.704 -1.026 1.878 -1.164C2.082 -1.326 2.616 -1.71 2.802 -1.89C2.982 -2.07 3.228 -2.376 3.228 -2.802C3.228 -3.552 2.55 -3.99 1.746 -3.99C0.972 -3.99 0.432 -3.48 0.432 -2.916C0.432 -2.61 0.69 -2.574 0.756 -2.574C0.906 -2.574 1.08 -2.682 1.08 -2.898C1.08 -3.03 1.002 -3.222 0.738 -3.222C0.876 -3.528 1.242 -3.756 1.656 -3.756C2.286 -3.756 2.622 -3.288 2.622 -2.802C2.622 -2.376 2.34 -1.938 1.92 -1.554L0.498 -0.252C0.438 -0.192 0.432 -0.186 0.432 -0H3.042L3.228 -1.122Z"/>
	<path id="x" d="M5.688 -4.896C5.304 -4.824 5.16 -4.536 5.16 -4.308C5.16 -4.02 5.388 -3.924 5.556 -3.924C5.916 -3.924 6.168 -4.236 6.168 -4.56C6.168 -5.064 5.592 -5.292 5.088 -5.292C4.356 -5.292 3.948 -4.572 3.84 -4.344C3.564 -5.244 2.82 -5.292 2.604 -5.292C1.38 -5.292 0.732 -3.72 0.732 -3.456C0.732 -3.408 0.78 -3.348 0.864 -3.348C0.96 -3.348 0.984 -3.42 1.008 -3.468C1.416 -4.8 2.22 -5.052 2.568 -5.052C3.108 -5.052 3.216 -4.548 3.216 -4.26C3.216 -3.996 3.144 -3.72 3 -3.144C2.808 -2.376 2.76 -2.196 2.592 -1.5C2.412 -0.78 2.064 -0.12 1.428 -0.12C1.368 -0.12 1.068 -0.12 0.816 -0.276C1.248 -0.36 1.344 -0.72 1.344 -0.864C1.344 -1.104 1.164 -1.248 0.936 -1.248C0.648 -1.248 0.336 -0.996 0.336 -0.612C0.336 -0.108 0.9 0.12 1.416 0.12C1.992 0.12 2.4 -0.336 2.652 -0.828C2.844 -0.12 3.444 0.12 3.888 0.12C5.112 0.12 5.76 -1.452 5.76 -1.716C5.76 -1.776 5.712 -1.824 5.64 -1.824C5.532 -1.824 5.52 -1.764 5.484 -1.668C5.16 -0.612 4.464 -0.12 3.924 -0.12C3.504 -0.12 3.276 -0.432 3.276 -0.924C3.276 -1.188 3.324 -1.38 3.516 -2.172C3.66 -2.724 3.816 -3.36 3.936 -3.804C4.116 -4.524 4.524 -5.052 5.076 -5.052C5.1 -5.052 5.436 -5.052 5.688 -4.896Z"/>
	<path id="f"       d="M 3.65625 -3.984375 L 4.515625 -3.984375 C 4.71875 -3.984375 4.8125 -3.984375 4.8125 -4.1875 C 4.8125 -4.296875 4.71875 -4.296875 4.546875 -4.296875 L 3.71875 -4.296875 C 3.828125 -4.875 3.8125 -4.859375 3.921875 -5.4375 C 3.96875 -5.640625 4.109375 -6.34375 4.171875 -6.46875 C 4.25 -6.65625 4.421875 -6.8125 4.640625 -6.8125 C 4.671875 -6.8125 4.9375 -6.8125 5.125 -6.625 C 4.6875 -6.59375 4.578125 -6.234375 4.578125 -6.09375 C 4.578125 -5.859375 4.765625 -5.734375 4.953125 -5.734375 C 5.21875 -5.734375 5.5 -5.96875 5.5 -6.34375 C 5.5 -6.796875 5.046875 -7.03125 4.640625 -7.03125 C 4.296875 -7.03125 3.671875 -6.84375 3.375 -5.859375 C 3.3125 -5.65625 3.28125 -5.546875 3.046875 -4.296875 L 2.359375 -4.296875 C 2.15625 -4.296875 2.046875 -4.296875 2.046875 -4.109375 C 2.046875 -3.984375 2.140625 -3.984375 2.328125 -3.984375 L 2.984375 -3.984375 L 2.25 -0.046875 C 2.0625 0.921875 1.890625 1.828125 1.375 1.828125 C 1.328125 1.828125 1.09375 1.828125 0.890625 1.640625 C 1.359375 1.609375 1.453125 1.25 1.453125 1.109375 C 1.453125 0.875 1.265625 0.75 1.078125 0.75 C 0.8125 0.75 0.53125 0.984375 0.53125 1.359375 C 0.53125 1.796875 0.96875 2.046875 1.375 2.046875 C 1.921875 2.046875 2.328125 1.453125 2.5 1.078125 C 2.828125 0.453125 3.046875 -0.75 3.0625 -0.828125 L 3.65625 -3.984375 Z M 3.65625 -3.984375 "/>
	<path id="l-paren" d="M 3.296875 2.390625 C 3.296875 2.359375 3.296875 2.34375 3.125 2.171875 C 1.890625 0.921875 1.5625 -0.96875 1.5625 -2.5 C 1.5625 -4.234375 1.9375 -5.96875 3.171875 -7.203125 C 3.296875 -7.328125 3.296875 -7.34375 3.296875 -7.375 C 3.296875 -7.453125 3.265625 -7.484375 3.203125 -7.484375 C 3.09375 -7.484375 2.203125 -6.796875 1.609375 -5.53125 C 1.109375 -4.4375 0.984375 -3.328125 0.984375 -2.5 C 0.984375 -1.71875 1.09375 -0.515625 1.640625 0.625 C 2.25 1.84375 3.09375 2.5 3.203125 2.5 C 3.265625 2.5 3.296875 2.46875 3.296875 2.390625 Z M 3.296875 2.390625 "/>
	<path id="r-paren" d="M 2.875 -2.5 C 2.875 -3.265625 2.765625 -4.46875 2.21875 -5.609375 C 1.625 -6.828125 0.765625 -7.484375 0.671875 -7.484375 C 0.609375 -7.484375 0.5625 -7.4375 0.5625 -7.375 C 0.5625 -7.34375 0.5625 -7.328125 0.75 -7.140625 C 1.734375 -6.15625 2.296875 -4.578125 2.296875 -2.5 C 2.296875 -0.78125 1.9375 0.96875 0.703125 2.21875 C 0.5625 2.34375 0.5625 2.359375 0.5625 2.390625 C 0.5625 2.453125 0.609375 2.5 0.671875 2.5 C 0.765625 2.5 1.671875 1.8125 2.25 0.546875 C 2.765625 -0.546875 2.875 -1.65625 2.875 -2.5 Z M 2.875 -2.5 "/>

	<path id="minus" d="M 6.59375 -2.296875 C 6.734375 -2.296875 6.921875 -2.296875 6.921875 -2.5 C 6.921875 -2.6875 6.734375 -2.6875 6.59375 -2.6875 L 1.15625 -2.6875 C 1.015625 -2.6875 0.828125 -2.6875 0.828125 -2.5 C 0.828125 -2.296875 1.015625 -2.296875 1.15625 -2.296875 L 6.59375 -2.296875 Z M 6.59375 -2.296875 "/>
	<path id="d1" d="M 2.9375 -6.375 C 2.9375 -6.625 2.9375 -6.640625 2.703125 -6.640625 C 2.078125 -6 1.203125 -6 0.890625 -6 L 0.890625 -5.6875 C 1.09375 -5.6875 1.671875 -5.6875 2.1875 -5.953125 L 2.1875 -0.78125 C 2.1875 -0.421875 2.15625 -0.3125 1.265625 -0.3125 L 0.953125 -0.3125 L 0.953125 0 C 1.296875 -0.03125 2.15625 -0.03125 2.5625 -0.03125 C 2.953125 -0.03125 3.828125 -0.03125 4.171875 0 L 4.171875 -0.3125 L 3.859375 -0.3125 C 2.953125 -0.3125 2.9375 -0.421875 2.9375 -0.78125 L 2.9375 -6.375 Z M 2.9375 -6.375 "/>
	<path id="d2" d="M 4.46875 -1.734375 L 4.234375 -1.734375 C 4.171875 -1.4375 4.109375 -1 4 -0.84375 C 3.9375 -0.765625 3.28125 -0.765625 3.0625 -0.765625 L 1.265625 -0.765625 L 2.328125 -1.796875 C 3.875 -3.171875 4.46875 -3.703125 4.46875 -4.703125 C 4.46875 -5.84375 3.578125 -6.640625 2.359375 -6.640625 C 1.234375 -6.640625 0.5 -5.71875 0.5 -4.828125 C 0.5 -4.28125 1 -4.28125 1.03125 -4.28125 C 1.203125 -4.28125 1.546875 -4.390625 1.546875 -4.8125 C 1.546875 -5.0625 1.359375 -5.328125 1.015625 -5.328125 C 0.9375 -5.328125 0.921875 -5.328125 0.890625 -5.3125 C 1.109375 -5.96875 1.65625 -6.328125 2.234375 -6.328125 C 3.140625 -6.328125 3.5625 -5.515625 3.5625 -4.703125 C 3.5625 -3.90625 3.078125 -3.125 2.515625 -2.5 L 0.609375 -0.375 C 0.5 -0.265625 0.5 -0.234375 0.5 0 L 4.203125 0 L 4.46875 -1.734375 Z M 4.46875 -1.734375 "/>
	<path id="d3" d="M 2.890625 -3.515625 C 3.703125 -3.78125 4.28125 -4.46875 4.28125 -5.265625 C 4.28125 -6.078125 3.40625 -6.640625 2.453125 -6.640625 C 1.453125 -6.640625 0.6875 -6.046875 0.6875 -5.28125 C 0.6875 -4.953125 0.90625 -4.765625 1.203125 -4.765625 C 1.5 -4.765625 1.703125 -4.984375 1.703125 -5.28125 C 1.703125 -5.765625 1.234375 -5.765625 1.09375 -5.765625 C 1.390625 -6.265625 2.046875 -6.390625 2.40625 -6.390625 C 2.828125 -6.390625 3.375 -6.171875 3.375 -5.28125 C 3.375 -5.15625 3.34375 -4.578125 3.09375 -4.140625 C 2.796875 -3.65625 2.453125 -3.625 2.203125 -3.625 C 2.125 -3.609375 1.890625 -3.59375 1.8125 -3.59375 C 1.734375 -3.578125 1.671875 -3.5625 1.671875 -3.46875 C 1.671875 -3.359375 1.734375 -3.359375 1.90625 -3.359375 L 2.34375 -3.359375 C 3.15625 -3.359375 3.53125 -2.6875 3.53125 -1.703125 C 3.53125 -0.34375 2.84375 -0.0625 2.40625 -0.0625 C 1.96875 -0.0625 1.21875 -0.234375 0.875 -0.8125 C 1.21875 -0.765625 1.53125 -0.984375 1.53125 -1.359375 C 1.53125 -1.71875 1.265625 -1.921875 0.984375 -1.921875 C 0.734375 -1.921875 0.421875 -1.78125 0.421875 -1.34375 C 0.421875 -0.4375 1.34375 0.21875 2.4375 0.21875 C 3.65625 0.21875 4.5625 -0.6875 4.5625 -1.703125 C 4.5625 -2.515625 3.921875 -3.296875 2.890625 -3.515625 Z M 2.890625 -3.515625 "/>
	<path id="d4" d="M 0.28125 -1.640625 L 2.9375 -1.640625 L 2.9375 -0.78125 C 2.9375 -0.421875 2.90625 -0.3125 2.171875 -0.3125 L 1.96875 -0.3125 L 1.96875 0 C 2.375 -0.03125 2.890625 -0.03125 3.3125 -0.03125 C 3.734375 -0.03125 4.25 -0.03125 4.671875 0 L 4.671875 -0.3125 L 4.453125 -0.3125 C 3.71875 -0.3125 3.703125 -0.421875 3.703125 -0.78125 L 3.703125 -1.640625 L 4.6875 -1.640625 L 4.6875 -1.953125 L 3.703125 -1.953125 L 3.703125 -6.484375 C 3.703125 -6.6875 3.703125 -6.75 3.53125 -6.75 C 3.453125 -6.75 3.421875 -6.75 3.34375 -6.625 L 0.28125 -1.953125 L 0.28125 -1.640625 Z M 2.984375 -1.953125 L 0.5625 -1.953125 L 2.984375 -5.671875 L 2.984375 -1.953125 Z M 2.984375 -1.953125 "/>
	<path id="d5" d="M 4.46875 -2 C 4.46875 -3.1875 3.65625 -4.1875 2.578125 -4.1875 C 2.109375 -4.1875 1.671875 -4.03125 1.3125 -3.671875 L 1.3125 -5.625 C 1.515625 -5.5625 1.84375 -5.5 2.15625 -5.5 C 3.390625 -5.5 4.09375 -6.40625 4.09375 -6.53125 C 4.09375 -6.59375 4.0625 -6.640625 3.984375 -6.640625 C 3.984375 -6.640625 3.953125 -6.640625 3.90625 -6.609375 C 3.703125 -6.515625 3.21875 -6.3125 2.546875 -6.3125 C 2.15625 -6.3125 1.6875 -6.390625 1.21875 -6.59375 C 1.140625 -6.625 1.125 -6.625 1.109375 -6.625 C 1 -6.625 1 -6.546875 1 -6.390625 L 1 -3.4375 C 1 -3.265625 1 -3.1875 1.140625 -3.1875 C 1.21875 -3.1875 1.234375 -3.203125 1.28125 -3.265625 C 1.390625 -3.421875 1.75 -3.96875 2.5625 -3.96875 C 3.078125 -3.96875 3.328125 -3.515625 3.40625 -3.328125 C 3.5625 -2.953125 3.59375 -2.578125 3.59375 -2.078125 C 3.59375 -1.71875 3.59375 -1.125 3.34375 -0.703125 C 3.109375 -0.3125 2.734375 -0.0625 2.28125 -0.0625 C 1.5625 -0.0625 0.984375 -0.59375 0.8125 -1.171875 C 0.84375 -1.171875 0.875 -1.15625 0.984375 -1.15625 C 1.3125 -1.15625 1.484375 -1.40625 1.484375 -1.640625 C 1.484375 -1.890625 1.3125 -2.140625 0.984375 -2.140625 C 0.84375 -2.140625 0.5 -2.0625 0.5 -1.609375 C 0.5 -0.75 1.1875 0.21875 2.296875 0.21875 C 3.453125 0.21875 4.46875 -0.734375 4.46875 -2 Z M 4.46875 -2 "/>
	<path id="d6" d="M 1.3125 -3.265625 L 1.3125 -3.515625 C 1.3125 -6.03125 2.546875 -6.390625 3.0625 -6.390625 C 3.296875 -6.390625 3.71875 -6.328125 3.9375 -5.984375 C 3.78125 -5.984375 3.390625 -5.984375 3.390625 -5.546875 C 3.390625 -5.234375 3.625 -5.078125 3.84375 -5.078125 C 4 -5.078125 4.3125 -5.171875 4.3125 -5.5625 C 4.3125 -6.15625 3.875 -6.640625 3.046875 -6.640625 C 1.765625 -6.640625 0.421875 -5.359375 0.421875 -3.15625 C 0.421875 -0.484375 1.578125 0.21875 2.5 0.21875 C 3.609375 0.21875 4.5625 -0.71875 4.5625 -2.03125 C 4.5625 -3.296875 3.671875 -4.25 2.5625 -4.25 C 1.890625 -4.25 1.515625 -3.75 1.3125 -3.265625 Z M 2.5 -0.0625 C 1.875 -0.0625 1.578125 -0.65625 1.515625 -0.8125 C 1.328125 -1.28125 1.328125 -2.078125 1.328125 -2.25 C 1.328125 -3.03125 1.65625 -4.03125 2.546875 -4.03125 C 2.71875 -4.03125 3.171875 -4.03125 3.484375 -3.40625 C 3.65625 -3.046875 3.65625 -2.53125 3.65625 -2.046875 C 3.65625 -1.5625 3.65625 -1.0625 3.484375 -0.703125 C 3.1875 -0.109375 2.734375 -0.0625 2.5 -0.0625 Z M 2.5 -0.0625 "/>
	<path id="d7" d="M 4.75 -6.078125 C 4.828125 -6.1875 4.828125 -6.203125 4.828125 -6.421875 L 2.40625 -6.421875 C 1.203125 -6.421875 1.171875 -6.546875 1.140625 -6.734375 L 0.890625 -6.734375 L 0.5625 -4.6875 L 0.8125 -4.6875 C 0.84375 -4.84375 0.921875 -5.46875 1.0625 -5.59375 C 1.125 -5.65625 1.90625 -5.65625 2.03125 -5.65625 L 4.09375 -5.65625 C 3.984375 -5.5 3.203125 -4.40625 2.984375 -4.078125 C 2.078125 -2.734375 1.75 -1.34375 1.75 -0.328125 C 1.75 -0.234375 1.75 0.21875 2.21875 0.21875 C 2.671875 0.21875 2.671875 -0.234375 2.671875 -0.328125 L 2.671875 -0.84375 C 2.671875 -1.390625 2.703125 -1.9375 2.78125 -2.46875 C 2.828125 -2.703125 2.953125 -3.5625 3.40625 -4.171875 L 4.75 -6.078125 Z M 4.75 -6.078125 "/>
	<path id="d8" d="M 1.625 -4.5625 C 1.171875 -4.859375 1.125 -5.1875 1.125 -5.359375 C 1.125 -5.96875 1.78125 -6.390625 2.484375 -6.390625 C 3.203125 -6.390625 3.84375 -5.875 3.84375 -5.15625 C 3.84375 -4.578125 3.453125 -4.109375 2.859375 -3.765625 L 1.625 -4.5625 Z M 3.078125 -3.609375 C 3.796875 -3.984375 4.28125 -4.5 4.28125 -5.15625 C 4.28125 -6.078125 3.40625 -6.640625 2.5 -6.640625 C 1.5 -6.640625 0.6875 -5.90625 0.6875 -4.96875 C 0.6875 -4.796875 0.703125 -4.34375 1.125 -3.875 C 1.234375 -3.765625 1.609375 -3.515625 1.859375 -3.34375 C 1.28125 -3.046875 0.421875 -2.5 0.421875 -1.5 C 0.421875 -0.453125 1.4375 0.21875 2.484375 0.21875 C 3.609375 0.21875 4.5625 -0.609375 4.5625 -1.671875 C 4.5625 -2.03125 4.453125 -2.484375 4.0625 -2.90625 C 3.875 -3.109375 3.71875 -3.203125 3.078125 -3.609375 Z M 2.078125 -3.1875 C 2.359375 -3.015625 2.828125 -2.71875 3.3125 -2.40625 C 3.59375 -2.21875 4.0625 -1.921875 4.0625 -1.3125 C 4.0625 -0.578125 3.3125 -0.0625 2.5 -0.0625 C 1.640625 -0.0625 0.921875 -0.671875 0.921875 -1.5 C 0.921875 -2.078125 1.234375 -2.71875 2.078125 -3.1875 Z M 2.078125 -3.1875 "/>
	<path id="d9" d="M 3.65625 -3.171875 L 3.65625 -2.84375 C 3.65625 -0.515625 2.625 -0.0625 2.046875 -0.0625 C 1.875 -0.0625 1.328125 -0.078125 1.0625 -0.421875 C 1.5 -0.421875 1.578125 -0.703125 1.578125 -0.875 C 1.578125 -1.1875 1.34375 -1.328125 1.125 -1.328125 C 0.96875 -1.328125 0.671875 -1.25 0.671875 -0.859375 C 0.671875 -0.1875 1.203125 0.21875 2.046875 0.21875 C 3.34375 0.21875 4.5625 -1.140625 4.5625 -3.28125 C 4.5625 -5.96875 3.40625 -6.640625 2.515625 -6.640625 C 1.96875 -6.640625 1.484375 -6.453125 1.0625 -6.015625 C 0.640625 -5.5625 0.421875 -5.140625 0.421875 -4.390625 C 0.421875 -3.15625 1.296875 -2.171875 2.40625 -2.171875 C 3.015625 -2.171875 3.421875 -2.59375 3.65625 -3.171875 Z M 2.421875 -2.40625 C 2.265625 -2.40625 1.796875 -2.40625 1.5 -3.03125 C 1.3125 -3.40625 1.3125 -3.890625 1.3125 -4.390625 C 1.3125 -4.921875 1.3125 -5.390625 1.53125 -5.765625 C 1.796875 -6.265625 2.171875 -6.390625 2.515625 -6.390625 C 2.984375 -6.390625 3.3125 -6.046875 3.484375 -5.609375 C 3.59375 -5.28125 3.640625 -4.65625 3.640625 -4.203125 C 3.640625 -3.375 3.296875 -2.40625 2.421875 -2.40625 Z M 2.421875 -2.40625 "/>

	<!-- We cannot reuse Graphs of Log for different bases because
	     Scaling in y-Direction would also scale the Strokes in
	     y-Direction -->

	<!-- ln -->
	<path id="ln" d = "
		M 0.006738 -5
		Q 0.008562 -4.729253 0.011109 -4.5
		Q 0.014117 -4.229253 0.018316 -4
		Q 0.023275 -3.729253 0.030197 -3.5
		Q 0.038373 -3.229253 0.049787 -3
		Q 0.063267 -2.729253 0.082085 -2.5
		Q 0.104309 -2.229253 0.135335 -2
		Q 0.171977 -1.729253 0.22313 -1.5
		Q 0.283542 -1.229253 0.367879 -1
		Q 0.467482 -0.729253 0.606531 -0.5
		Q 0.770747 -0.229253 1 0
		Q 1.270747 0.270747 1.648721 0.5
		Q 2.095108 0.770747 2.718282 1
		Q 3.454249 1.270747 4.481689 1.5
		Q 5.695093 1.770747 7.389056 2
		Q 9.389621 2.270747 12.182494 2.5" />

	<!-- log_2 x -->
	<path id="log2" d = "
		M 0.03125 -5
		Q 0.036977 -4.735588 0.044194 -4.5
		Q 0.052294 -4.235588 0.0625 -4
		Q 0.073955 -3.735588 0.088388 -3.5
		Q 0.104588 -3.235588 0.125 -3
		Q 0.14791 -2.735588 0.176777 -2.5
		Q 0.209176 -2.235588 0.25 -2
		Q 0.295819 -1.735588 0.353553 -1.5
		Q 0.418351 -1.235588 0.5 -1
		Q 0.591638 -0.735588 0.707107 -0.5
		Q 0.836703 -0.235588 1 0
		Q 1.183276 0.264412 1.414214 0.5
		Q 1.673405 0.764412 2 1
		Q 2.366553 1.264412 2.828427 1.5
		Q 3.346811 1.764412 4 2
		Q 4.733105 2.264412 5.656854 2.5
		Q 6.693621 2.764412 8 3
		Q 9.46621 3.264412 11.313708 3.5" />

    <!-- pstricks-style arrow, zoom 3 -->
    <marker id="Arrow" refX="6" refY="5" markerUnits="strokeWidth"
            markerWidth="12" markerHeight="9" orient="auto">
		<path d="M 5 5 L 0 9 L 12 5 L 0 0 z"/>
    </marker>

	<!-- Pattern used to x-Ticks on Axes -->
	<pattern id="tick-x" width="1" height="1" patternUnits="userSpaceOnUse">
		<path style="stroke:black; stroke-width:0.023;" d="M 0,-1 v 2" />
	</pattern>

	<!-- Pattern used to y-Ticks on Axes -->
	<pattern id="tick-y" width="1" height="1" patternUnits="userSpaceOnUse">
		<path style="stroke:black; stroke-width:0.023;" d="M -1,0 h 2" />
	</pattern>

</defs>

<rect x="-1.5" y="-5" width="100%" height="100%" style="fill:white; fill-opacity:0.8;" />

<g style="stroke:none; fill:black;">

	<!-- Label for x-Axis -->
	<g transform="translate(9.3 -0.2)">
	<g transform="scale(0.04)">
	<use xlink:href="#x"/>
	</g></g>

	<!-- Label for y-Axis -->
	<g transform="translate(0.2 -4.3)">
	<g transform="scale(0.045)">
	<use xlink:href="#f" x="0.303516" />
	<use xlink:href="#l-paren" x="6.253516" />
	<use xlink:href="#r-paren" x="15.821876" />
	</g>
	<g transform="scale(0.04)">
	<use xlink:href="#x" x="11.3" />
	</g>
	</g>

	<!-- Labels for graphs -->
	<g transform="translate(9.1 -1.7)">
	<g transform="scale(0.04)">
	<use xlink:href="#l" />
	<use xlink:href="#n" x="3.26" />
	<use xlink:href="#x" x="11.8" />
	</g></g>

	<g transform="translate(8.7 -3.5)">
	<g transform="scale(0.04)">
	<use xlink:href="#l" />
	<use xlink:href="#o"  x="3.26" />
	<use xlink:href="#g"  x="9.14" />
	<use xlink:href="#_2" x="15.18" y="2.83"/>
	<use xlink:href="#x"  x="21.9" />
	</g></g>

	<g transform="translate(8.6 3.7)">
	<g transform="scale(0.04)">
	<use xlink:href="#l" />
	<use xlink:href="#o"   x="3.26" />
	<use xlink:href="#g"   x="9.14" />
	<use xlink:href="#__1" x="16.4" y="-0.266"/>
	<rect height="0.4" width="3.67" x="16.4" y="0.8"/>
	<use xlink:href="#__2" x="16.4" y="6.142"/>
	<use xlink:href="#x"   x="23.3" />
	</g></g>

	<!-- Scaling for x-Axis -->
	<g transform="translate (0.3 0.4)">
		<g transform="translate(-1 0)">
		<g transform="scale(0.035)">
		<use xlink:href="#minus" x="-15.73" y="2.8"/>
		<use xlink:href="#d1" x="-8" y="2.8"/>
		</g></g>

		<g transform="translate(1 0)">
		<g transform="scale(0.035)">
		<use xlink:href="#d1" x="-11" y="2.8"/>
		</g></g>

		<g transform="translate(2 0)">
		<g transform="scale(0.035)">
		<use xlink:href="#d2" x="-11" y="2.8"/>
		</g></g>

		<g transform="translate(3 0)">
		<g transform="scale(0.035)">
		<use xlink:href="#d3" x="-11" y="2.8"/>
		</g></g>

		<g transform="translate(4 0)">
		<g transform="scale(0.035)">
		<use xlink:href="#d4" x="-11" y="2.8"/>
		</g></g>

		<g transform="translate(5 0)">
		<g transform="scale(0.035)">
		<use xlink:href="#d5" x="-11" y="2.8"/>
		</g></g>

		<g transform="translate(6 0)">
		<g transform="scale(0.035)">
		<use xlink:href="#d6" x="-11" y="2.8"/>
		</g></g>

		<g transform="translate(7 0)">
		<g transform="scale(0.035)">
		<use xlink:href="#d7" x="-11" y="2.8"/>
		</g></g>

		<g transform="translate(8 0)">
		<g transform="scale(0.035)">
		<use xlink:href="#d8" x="-11" y="2.8"/>
		</g></g>

		<g transform="translate(9 0)">
		<g transform="scale(0.035)">
		<use xlink:href="#d9" x="-11" y="2.8"/>
		</g></g>
	</g>

	<!-- Scaling for y-Axis -->
	<g transform="translate (-0.15 0)">
		<g transform="translate(0 4)">
		<g transform="scale(0.035)">
		<use xlink:href="#minus" x="-15.73" y="2.8"/>
		<use xlink:href="#d4" x="-8" y="2.8"/>
		</g></g>

		<g transform="translate(0 3)">
		<g transform="scale(0.035)">
		<use xlink:href="#minus" x="-15.73" y="2.8"/>
		<use xlink:href="#d3" x="-8" y="2.8"/>
		</g></g>

		<g transform="translate(0 2)">
		<g transform="scale(0.035)">
		<use xlink:href="#minus" x="-15.73" y="2.8"/>
		<use xlink:href="#d2" x="-8" y="2.8"/>
		</g></g>

		<g transform="translate(0 1)">
		<g transform="scale(0.035)">
		<use xlink:href="#minus" x="-15.73" y="2.8"/>
		<use xlink:href="#d1" x="-8" y="2.8"/>
		</g></g>

		<g transform="translate(0 -1)">
		<g transform="scale(0.035)">
		<use xlink:href="#d1" x="-8" y="3.2"/>
		</g></g>

		<g transform="translate(0 -2)">
		<g transform="scale(0.035)">
		<use xlink:href="#d2" x="-8" y="3.2"/>
		</g></g>

		<g transform="translate(0 -3)">
		<g transform="scale(0.035)">
		<use xlink:href="#d3" x="-8" y="3.2"/>
		</g></g>

		<g transform="translate(0 -4)">
		<g transform="scale(0.035)">
		<use xlink:href="#d4" x="-8" y="3.2"/>
		</g></g>
	</g>
</g>

<g transform="scale(1 -1)" style="fill:none;">

	<!-- Ticks on x-Axis -->
	<rect x="-1.5" y="-0.15" width="11" height="0.3" fill="url(#tick-x)" style="stroke:none;" />

	<!-- Ticks on y-Axis -->
	<rect x="-0.15" y="-4.5" width="0.3" height="9" fill="url(#tick-y)" style="stroke:none;" />

	<g style="stroke:black; stroke-width:0.025;">
		<!-- Axes shortened by 6*width because of Arrow -->
		<path d="M -2,0 L 9.82,0" marker-end="url(#Arrow)"/>
		<path d="M 0,-5 L 0,4.82" marker-end="url(#Arrow)"/>
	</g>

	<!-- The Graphs -->
	<g style="stroke-width:0.025;">
		<!-- log_0.5 x -->
		<use xlink:href="#log2" style="stroke:#33f;" transform="scale(1 -1)" />
		<!-- log_2 x -->
		<use xlink:href="#log2" style="stroke:#390;" />
		<!-- ln x -->
		<use xlink:href="#ln"   style="stroke:#f00;" />
	</g>
</g>
</svg>
