<?xml version="1.0"?>
<!-- Created by MetaPost 1.502 on 2010.08.08:0609 -->
<svg version="1.1" xmlns="http://www.w3.org/2000/svg" xmlns:xlink="http://www.w3.org/1999/xlink" width="600" height="374" viewBox="0 0 301.07256 187.33675">
<!-- Original BoundingBox: -17.00804 -17.00804 284.06451 170.3287 -->
  <defs>
    <g transform="scale(0.00995,0.00995)" id="GLYPHcmr10_40">
      <path style="fill-rule: evenodd;" d="M331 240C331 237,331 235,314 218C189 92,157 -97,157 -250C157 -424,195 -598,318 -723C331 -735,331 -737,331 -740C331 -747,327 -750,321 -750C311 -750,221 -682,162 -555C111 -445,99 -334,99 -250C99 -172,110 -51,165 62C225 185,311 250,321 250C327 250,331 247,331 240"></path>
    </g>
    <g transform="scale(0.00995,0.00995)" id="GLYPHcmr10_41">
      <path style="fill-rule: evenodd;" d="M289 -250C289 -328,278 -449,223 -562C163 -685,77 -750,67 -750C61 -750,57 -746,57 -740C57 -737,57 -735,76 -717C174 -618,231 -459,231 -250C231 -79,194 97,70 223C57 235,57 237,57 240C57 246,61 250,67 250C77 250,167 182,226 55C277 -55,289 -166,289 -250"></path>
    </g>
    <g transform="scale(0.00995,0.00995)" id="GLYPHcmr10_49">
      <path style="fill-rule: evenodd;" d="M294 -640C294 -664,294 -666,271 -666C209 -602,121 -602,89 -602L89 -571C109 -571,168 -571,220 -597L220 -79C220 -43,217 -31,127 -31L95 -31L95 0C130 -3,217 -3,257 -3C297 -3,384 -3,419 0L419 -31L387 -31C297 -31,294 -42,294 -79"></path>
    </g>
    <g transform="scale(0.00995,0.00995)" id="GLYPHcmr10_50">
      <path style="fill-rule: evenodd;" d="M449 -174L424 -174C419 -144,412 -100,402 -85C395 -77,329 -77,307 -77L127 -77L233 -180C389 -318,449 -372,449 -472C449 -586,359 -666,237 -666C124 -666,50 -574,50 -485C50 -429,100 -429,103 -429C120 -429,155 -441,155 -482C155 -508,137 -534,102 -534C94 -534,92 -534,89 -533C112 -598,166 -635,224 -635C315 -635,358 -554,358 -472C358 -392,308 -313,253 -251L61 -37C50 -26,50 -24,50 0L421 0"></path>
    </g>
    <g transform="scale(0.00995,0.00995)" id="GLYPHcmr10_51">
      <path style="fill-rule: evenodd;" d="M290 -352C372 -379,430 -449,430 -528C430 -610,342 -666,246 -666C145 -666,69 -606,69 -530C69 -497,91 -478,120 -478C151 -478,171 -500,171 -529C171 -579,124 -579,109 -579C140 -628,206 -641,242 -641C283 -641,338 -619,338 -529C338 -517,336 -459,310 -415C280 -367,246 -364,221 -363C213 -362,189 -360,182 -360C174 -359,167 -358,167 -348C167 -337,174 -337,191 -337L235 -337C317 -337,354 -269,354 -171C354 -35,285 -6,241 -6C198 -6,123 -23,88 -82C123 -77,154 -99,154 -137C154 -173,127 -193,98 -193C74 -193,42 -179,42 -135C42 -44,135 22,244 22C366 22,457 -69,457 -171C457 -253,394 -331,290 -352"></path>
    </g>
    <g transform="scale(0.00995,0.00995)" id="GLYPHcmr10_52">
      <path style="fill-rule: evenodd;" d="M28 -165L294 -165L294 -78C294 -42,292 -31,218 -31L197 -31L197 0C238 -3,290 -3,332 -3C374 -3,427 -3,468 0L468 -31L447 -31C373 -31,371 -42,371 -78L371 -165L471 -165L471 -196L371 -196L371 -651C371 -671,371 -677,355 -677C346 -677,343 -677,335 -665L28 -196M300 -196L56 -196L300 -569"></path>
    </g>
    <g transform="scale(0.00995,0.00995)" id="GLYPHcmr10_53">
      <path style="fill-rule: evenodd;" d="M449 -201C449 -320,367 -420,259 -420C211 -420,168 -404,132 -369L132 -564C152 -558,185 -551,217 -551C340 -551,410 -642,410 -655C410 -661,407 -666,400 -666C399 -666,397 -666,392 -663C372 -654,323 -634,256 -634C216 -634,170 -641,123 -662C115 -665,113 -665,111 -665C101 -665,101 -657,101 -641L101 -345C101 -327,101 -319,115 -319C122 -319,124 -322,128 -328C139 -344,176 -398,257 -398C309 -398,334 -352,342 -334C358 -297,360 -258,360 -208C360 -173,360 -113,336 -71C312 -32,275 -6,229 -6C156 -6,99 -59,82 -118C85 -117,88 -116,99 -116C132 -116,149 -141,149 -165C149 -189,132 -214,99 -214C85 -214,50 -207,50 -161C50 -75,119 22,231 22C347 22,449 -74,449 -201"></path>
    </g>
    <g transform="scale(0.00995,0.00995)" id="GLYPHcmr10_54">
      <path style="fill-rule: evenodd;" d="M132 -328L132 -352C132 -605,256 -641,307 -641C331 -641,373 -635,395 -601C380 -601,340 -601,340 -556C340 -525,364 -510,386 -510C402 -510,432 -519,432 -558C432 -618,388 -666,305 -666C177 -666,42 -537,42 -316C42 -49,158 22,251 22C362 22,457 -72,457 -204C457 -331,368 -427,257 -427C189 -427,152 -376,132 -328M251 -6C188 -6,158 -66,152 -81C134 -128,134 -208,134 -226C134 -304,166 -404,256 -404C272 -404,318 -404,349 -342C367 -305,367 -254,367 -205C367 -157,367 -107,350 -71C320 -11,274 -6,251 -6"></path>
    </g>
    <g transform="scale(0.00995,0.00995)" id="GLYPHcmr10_55">
      <path style="fill-rule: evenodd;" d="M476 -609C485 -621,485 -623,485 -644L242 -644C120 -644,118 -657,114 -676L89 -676L56 -470L81 -470C84 -486,93 -549,106 -561C113 -567,191 -567,204 -567L411 -567C400 -551,321 -442,299 -409C209 -274,176 -135,176 -33C176 -23,176 22,222 22C268 22,268 -23,268 -33L268 -84C268 -139,271 -194,279 -248C283 -271,297 -357,341 -419"></path>
    </g>
    <g transform="scale(0.00995,0.00995)" id="GLYPHcmr10_56">
      <path style="fill-rule: evenodd;" d="M163 -457C117 -487,113 -521,113 -538C113 -599,178 -641,249 -641C322 -641,386 -589,386 -517C386 -460,347 -412,287 -377M309 -362C381 -399,430 -451,430 -517C430 -609,341 -666,250 -666C150 -666,69 -592,69 -499C69 -481,71 -436,113 -389C124 -377,161 -352,186 -335C128 -306,42 -250,42 -151C42 -45,144 22,249 22C362 22,457 -61,457 -168C457 -204,446 -249,408 -291C389 -312,373 -322,309 -362M209 -320C237 -303,284 -273,332 -242C360 -223,407 -193,407 -132C407 -58,332 -6,250 -6C164 -6,92 -68,92 -151C92 -209,124 -273,209 -320"></path>
    </g>
    <g transform="scale(0.00995,0.00995)" id="GLYPHcmr10_57">
      <path style="fill-rule: evenodd;" d="M367 -318L367 -286C367 -52,263 -6,205 -6C188 -6,134 -8,107 -42C151 -42,159 -71,159 -88C159 -119,135 -134,113 -134C97 -134,67 -125,67 -86C67 -19,121 22,206 22C335 22,457 -114,457 -329C457 -598,342 -666,253 -666C198 -666,149 -648,106 -603C65 -558,42 -516,42 -441C42 -316,130 -218,242 -218C303 -218,344 -260,367 -318M243 -241C227 -241,181 -241,150 -304C132 -341,132 -391,132 -440C132 -494,132 -541,153 -578C180 -628,218 -641,253 -641C299 -641,332 -607,349 -562C361 -530,365 -467,365 -421C365 -338,331 -241,243 -241"></path>
    </g>
    <g transform="scale(0.00995,0.00995)" id="GLYPHcmmi10_102">
      <path style="fill-rule: evenodd;" d="M367 -400L453 -400C473 -400,483 -400,483 -420C483 -431,473 -431,456 -431L373 -431C384 -489,383 -487,394 -545C398 -566,412 -637,418 -649C427 -668,444 -683,465 -683C469 -683,495 -683,514 -665C470 -661,460 -626,460 -611C460 -588,478 -576,497 -576C523 -576,552 -598,552 -636C552 -682,506 -705,465 -705C431 -705,368 -687,338 -588C332 -567,329 -557,305 -431L236 -431C217 -431,206 -431,206 -412C206 -400,215 -400,234 -400L300 -400L225 -5C207 92,190 183,138 183C134 183,109 183,90 165C136 162,145 126,145 111C145 88,127 76,108 76C82 76,53 98,53 136C53 181,97 205,138 205C193 205,233 146,251 108C283 45,306 -76,307 -83"></path>
    </g>
    <g transform="scale(0.00995,0.00995)" id="GLYPHcmmi10_120">
      <path style="fill-rule: evenodd;" d="M334 -302C340 -328,363 -420,433 -420C438 -420,462 -420,483 -407C455 -402,435 -377,435 -353C435 -337,446 -318,473 -318C495 -318,527 -336,527 -376C527 -428,468 -442,434 -442C376 -442,341 -389,329 -366C304 -432,250 -442,221 -442C117 -442,60 -313,60 -288C60 -278,70 -278,72 -278C80 -278,83 -280,85 -289C119 -395,185 -420,219 -420C238 -420,273 -411,273 -353C273 -322,256 -255,219 -115C203 -53,168 -11,124 -11C118 -11,95 -11,74 -24C99 -29,121 -50,121 -78C121 -105,99 -113,84 -113C54 -113,29 -87,29 -55C29 -9,79 11,123 11C189 11,225 -59,228 -65C240 -28,276 11,336 11C439 11,496 -118,496 -143C496 -153,487 -153,484 -153C475 -153,473 -149,471 -142C438 -35,370 -11,338 -11C299 -11,283 -43,283 -77C283 -99,289 -121,300 -165"></path>
    </g>
    <g transform="scale(0.00995,0.00995)" id="GLYPHcmsy10_112">
      <path style="fill-rule: evenodd;" d="M389 855L211 463C207 455,205 449,198 449C195 449,193 449,184 457L85 532C74 541,73 542,73 546C73 553,77 557,83 557C86 557,88 557,97 549L149 510L347 945C353 959,355 960,366 960C382 960,384 956,391 941L847 -3C852 -14,853 -15,853 -20C853 -31,845 -40,833 -40C821 -40,818 -33,812 -21"></path>
    </g>
  </defs>
  <path d="M0 187.33675L300.47255 187.33675L300.47255 0.25L0 0.25Z" style="fill: rgb(100%,100%,100%);stroke: none;"></path>
  <path d="M17.00804 184.50194L17.00804 0.25" style="stroke:rgb(0%,0%,0%); stroke-width: 0.5;stroke-linecap: round;stroke-linejoin: round;stroke-miterlimit: 10;fill: none;"></path>
  <path d="M18.53908 3.94615L17.00804 0.25L15.477 3.94615Z" style="stroke:rgb(0%,0%,0%); stroke-width: 0.5;fill: rgb(0%,0%,0%);"></path>
  <path d="M17.00804 141.98225L300.47255 141.98225" style="stroke:rgb(60.00061%,60.00061%,60.00061%); stroke-width: 0.5;stroke-linecap: round;stroke-dasharray: 3 3 ;stroke-linejoin: round;stroke-miterlimit: 10;fill: none;"></path>
  <path d="M14.1734 141.98225L19.84268 141.98225" style="stroke:rgb(0%,0%,0%); stroke-width: 0.5;stroke-linecap: round;stroke-linejoin: round;stroke-miterlimit: 10;fill: none;"></path>
  <g transform="translate(6.19206 145.19244)" style="fill: rgb(0%,0%,0%);">
    <use xlink:href="#GLYPHcmr10_49"></use>
  </g>
  <path d="M17.00804 113.6358L300.47255 113.6358" style="stroke:rgb(60.00061%,60.00061%,60.00061%); stroke-width: 0.5;stroke-linecap: round;stroke-dasharray: 3 3 ;stroke-linejoin: round;stroke-miterlimit: 10;fill: none;"></path>
  <path d="M14.1734 113.6358L19.84268 113.6358" style="stroke:rgb(0%,0%,0%); stroke-width: 0.5;stroke-linecap: round;stroke-linejoin: round;stroke-miterlimit: 10;fill: none;"></path>
  <g transform="translate(6.19206 116.846)" style="fill: rgb(0%,0%,0%);">
    <use xlink:href="#GLYPHcmr10_50"></use>
  </g>
  <path d="M17.00804 85.28935L300.47255 85.28935" style="stroke:rgb(60.00061%,60.00061%,60.00061%); stroke-width: 0.5;stroke-linecap: round;stroke-dasharray: 3 3 ;stroke-linejoin: round;stroke-miterlimit: 10;fill: none;"></path>
  <path d="M14.1734 85.28935L19.84268 85.28935" style="stroke:rgb(0%,0%,0%); stroke-width: 0.5;stroke-linecap: round;stroke-linejoin: round;stroke-miterlimit: 10;fill: none;"></path>
  <g transform="translate(6.19206 88.49954)" style="fill: rgb(0%,0%,0%);">
    <use xlink:href="#GLYPHcmr10_51"></use>
  </g>
  <path d="M17.00804 56.9429L300.47255 56.9429" style="stroke:rgb(60.00061%,60.00061%,60.00061%); stroke-width: 0.5;stroke-linecap: round;stroke-dasharray: 3 3 ;stroke-linejoin: round;stroke-miterlimit: 10;fill: none;"></path>
  <path d="M14.1734 56.9429L19.84268 56.9429" style="stroke:rgb(0%,0%,0%); stroke-width: 0.5;stroke-linecap: round;stroke-linejoin: round;stroke-miterlimit: 10;fill: none;"></path>
  <g transform="translate(6.19206 60.15309)" style="fill: rgb(0%,0%,0%);">
    <use xlink:href="#GLYPHcmr10_52"></use>
  </g>
  <path d="M17.00804 28.59645L300.47255 28.59645" style="stroke:rgb(60.00061%,60.00061%,60.00061%); stroke-width: 0.5;stroke-linecap: round;stroke-dasharray: 3 3 ;stroke-linejoin: round;stroke-miterlimit: 10;fill: none;"></path>
  <path d="M14.1734 28.59645L19.84268 28.59645" style="stroke:rgb(0%,0%,0%); stroke-width: 0.5;stroke-linecap: round;stroke-linejoin: round;stroke-miterlimit: 10;fill: none;"></path>
  <g transform="translate(6.19206 31.80664)" style="fill: rgb(0%,0%,0%);">
    <use xlink:href="#GLYPHcmr10_53"></use>
  </g>
  <path d="M2.83481 170.3287L300.47255 170.3287" style="stroke:rgb(0%,0%,0%); stroke-width: 0.5;stroke-linecap: round;stroke-linejoin: round;stroke-miterlimit: 10;fill: none;"></path>
  <path d="M296.77602 171.8599L300.47255 170.3287L296.77602 168.79752Z" style="stroke:rgb(0%,0%,0%); stroke-width: 0.5;fill: rgb(0%,0%,0%);"></path>
  <path d="M45.35449 170.3287L45.35449 0.25" style="stroke:rgb(50%,50%,50%); stroke-width: 0.5;stroke-linecap: round;stroke-dasharray: 3 3 ;stroke-linejoin: round;stroke-miterlimit: 10;fill: none;"></path>
  <path d="M45.35449 173.16335L45.35449 167.49406" style="stroke:rgb(0%,0%,0%); stroke-width: 0.5;stroke-linecap: round;stroke-linejoin: round;stroke-miterlimit: 10;fill: none;"></path>
  <g transform="translate(42.86382 182.58371)" style="fill: rgb(0%,0%,0%);">
    <use xlink:href="#GLYPHcmr10_49"></use>
  </g>
  <path d="M73.70094 170.3287L73.70094 0.25" style="stroke:rgb(50%,50%,50%); stroke-width: 0.5;stroke-linecap: round;stroke-dasharray: 3 3 ;stroke-linejoin: round;stroke-miterlimit: 10;fill: none;"></path>
  <path d="M73.70094 173.16335L73.70094 167.49406" style="stroke:rgb(0%,0%,0%); stroke-width: 0.5;stroke-linecap: round;stroke-linejoin: round;stroke-miterlimit: 10;fill: none;"></path>
  <g transform="translate(71.21027 182.58371)" style="fill: rgb(0%,0%,0%);">
    <use xlink:href="#GLYPHcmr10_50"></use>
  </g>
  <path d="M102.0474 170.3287L102.0474 0.25" style="stroke:rgb(50%,50%,50%); stroke-width: 0.5;stroke-linecap: round;stroke-dasharray: 3 3 ;stroke-linejoin: round;stroke-miterlimit: 10;fill: none;"></path>
  <path d="M102.0474 173.16335L102.0474 167.49406" style="stroke:rgb(0%,0%,0%); stroke-width: 0.5;stroke-linecap: round;stroke-linejoin: round;stroke-miterlimit: 10;fill: none;"></path>
  <g transform="translate(99.55672 182.58371)" style="fill: rgb(0%,0%,0%);">
    <use xlink:href="#GLYPHcmr10_51"></use>
  </g>
  <path d="M130.39384 170.3287L130.39384 0.25" style="stroke:rgb(50%,50%,50%); stroke-width: 0.5;stroke-linecap: round;stroke-dasharray: 3 3 ;stroke-linejoin: round;stroke-miterlimit: 10;fill: none;"></path>
  <path d="M130.39384 173.16335L130.39384 167.49406" style="stroke:rgb(0%,0%,0%); stroke-width: 0.5;stroke-linecap: round;stroke-linejoin: round;stroke-miterlimit: 10;fill: none;"></path>
  <g transform="translate(127.90317 182.58371)" style="fill: rgb(0%,0%,0%);">
    <use xlink:href="#GLYPHcmr10_52"></use>
  </g>
  <path d="M158.7403 170.3287L158.7403 0.25" style="stroke:rgb(50%,50%,50%); stroke-width: 0.5;stroke-linecap: round;stroke-dasharray: 3 3 ;stroke-linejoin: round;stroke-miterlimit: 10;fill: none;"></path>
  <path d="M158.7403 173.16335L158.7403 167.49406" style="stroke:rgb(0%,0%,0%); stroke-width: 0.5;stroke-linecap: round;stroke-linejoin: round;stroke-miterlimit: 10;fill: none;"></path>
  <g transform="translate(156.24962 182.58371)" style="fill: rgb(0%,0%,0%);">
    <use xlink:href="#GLYPHcmr10_53"></use>
  </g>
  <path d="M187.08675 170.3287L187.08675 0.25" style="stroke:rgb(50%,50%,50%); stroke-width: 0.5;stroke-linecap: round;stroke-dasharray: 3 3 ;stroke-linejoin: round;stroke-miterlimit: 10;fill: none;"></path>
  <path d="M187.08675 173.16335L187.08675 167.49406" style="stroke:rgb(0%,0%,0%); stroke-width: 0.5;stroke-linecap: round;stroke-linejoin: round;stroke-miterlimit: 10;fill: none;"></path>
  <g transform="translate(184.59607 182.58371)" style="fill: rgb(0%,0%,0%);">
    <use xlink:href="#GLYPHcmr10_54"></use>
  </g>
  <path d="M215.4332 170.3287L215.4332 0.25" style="stroke:rgb(50%,50%,50%); stroke-width: 0.5;stroke-linecap: round;stroke-dasharray: 3 3 ;stroke-linejoin: round;stroke-miterlimit: 10;fill: none;"></path>
  <path d="M215.4332 173.16335L215.4332 167.49406" style="stroke:rgb(0%,0%,0%); stroke-width: 0.5;stroke-linecap: round;stroke-linejoin: round;stroke-miterlimit: 10;fill: none;"></path>
  <g transform="translate(212.94252 182.58371)" style="fill: rgb(0%,0%,0%);">
    <use xlink:href="#GLYPHcmr10_55"></use>
  </g>
  <path d="M243.77965 170.3287L243.77965 0.25" style="stroke:rgb(50%,50%,50%); stroke-width: 0.5;stroke-linecap: round;stroke-dasharray: 3 3 ;stroke-linejoin: round;stroke-miterlimit: 10;fill: none;"></path>
  <path d="M243.77965 173.16335L243.77965 167.49406" style="stroke:rgb(0%,0%,0%); stroke-width: 0.5;stroke-linecap: round;stroke-linejoin: round;stroke-miterlimit: 10;fill: none;"></path>
  <g transform="translate(241.28897 182.58371)" style="fill: rgb(0%,0%,0%);">
    <use xlink:href="#GLYPHcmr10_56"></use>
  </g>
  <path d="M272.1261 170.3287L272.1261 0.25" style="stroke:rgb(50%,50%,50%); stroke-width: 0.5;stroke-linecap: round;stroke-dasharray: 3 3 ;stroke-linejoin: round;stroke-miterlimit: 10;fill: none;"></path>
  <path d="M272.1261 173.16335L272.1261 167.49406" style="stroke:rgb(0%,0%,0%); stroke-width: 0.5;stroke-linecap: round;stroke-linejoin: round;stroke-miterlimit: 10;fill: none;"></path>
  <g transform="translate(269.63542 182.58371)" style="fill: rgb(0%,0%,0%);">
    <use xlink:href="#GLYPHcmr10_57"></use>
  </g>
  <g transform="translate(283.45238 164.49406)" style="fill: rgb(0%,0%,0%);">
    <use xlink:href="#GLYPHcmmi10_120"></use>
  </g>
  <path d="M20.84268 21.40457L44.23528 21.40457L44.23528 7.44186L20.84268 7.44186Z" style="fill: rgb(100%,100%,100%);stroke: none;"></path>
  <g transform="translate(22.84268 16.91386)" style="fill: rgb(0%,0%,0%);">
    <use xlink:href="#GLYPHcmmi10_102"></use>
  </g>
  <g transform="translate(28.79259 16.91386)" style="fill: rgb(0%,0%,0%);">
    <use xlink:href="#GLYPHcmr10_40"></use>
  </g>
  <g transform="translate(32.66698 16.91386)" style="fill: rgb(0%,0%,0%);">
    <use xlink:href="#GLYPHcmmi10_120"></use>
  </g>
  <g transform="translate(38.36089 16.91386)" style="fill: rgb(0%,0%,0%);">
    <use xlink:href="#GLYPHcmr10_41"></use>
  </g>
  <g transform="translate(279.30128 70.39476)" style="fill: rgb(0%,0%,0%);">
    <use xlink:href="#GLYPHcmsy10_112"></use>
  </g>
  <path d="M287.60349 70.19545L293.29738 70.19545" style="stroke:rgb(0%,0%,0%); stroke-width: 0.3985;stroke-linejoin: round;stroke-miterlimit: 10;fill: none;"></path>
  <g transform="translate(287.60349 77.57056)" style="fill: rgb(0%,0%,0%);">
    <use xlink:href="#GLYPHcmmi10_120"></use>
  </g>
  <path d="M17.00804 170.3287C17.00804 164.83871,20.2018 160.04832,24.09465 156.15547C30.16142 150.0887,37.68857 145.81522,45.35449 141.98225C72.17693 128.57103,101.32259 120.90363,130.39384 113.6358C177.15599 101.94527,224.58398 93.21304,272.1261 85.28935C281.56831 83.71565,291.01755 82.18433,300.47255 80.68936" style="stroke:rgb(50%,0%,0%); stroke-width: 1.2;stroke-linejoin: round;stroke-miterlimit: 10;fill: none;"></path>
</svg>
